<svg width="22" height="22" viewBox="0 0 22 22" fill="none" xmlns="http://www.w3.org/2000/svg">
<path d="M20 19.9375C20 20.4875 19.7938 20.9687 19.3813 21.3812C18.9687 21.7937 18.4875 22 17.9375 22L6.02188 22L6.02188 19.9375L17.9375 19.9375L17.9375 2.0625L6.02188 2.0625L6.02188 1.77526e-06L17.9375 1.25441e-06C18.4875 1.23037e-06 18.9687 0.20625 19.3812 0.618751C19.7937 1.03125 20 1.5125 20 2.0625L20 19.9375ZM16.7406 11L10.1063 17.6344L8.62812 16.1563L12.7531 12.0313L3 12.0313L3 9.96875L12.7531 9.96875L8.62812 5.84375L10.1062 4.36563L16.7406 11Z" fill="url(#paint0_linear_1058_27989)"/>
<defs>
<linearGradient id="paint0_linear_1058_27989" x1="4.23504" y1="19.888" x2="17.2358" y2="2.22553" gradientUnits="userSpaceOnUse">
<stop stop-color="#88ABFF"/>
<stop offset="0.0001" stop-color="#88ABFF"/>
<stop offset="1" stop-color="#7983FF"/>
</linearGradient>
</defs>
</svg>
