<svg width="60" height="60" viewBox="0 0 60 60" fill="none" xmlns="http://www.w3.org/2000/svg">
<path opacity="0.13" d="M48 53.125C48 54.425 47.5147 55.5625 46.5441 56.5375C45.5735 57.5125 44.4412 58 43.1471 58L15.1103 58L15.1103 53.125L43.1471 53.125L43.1471 10.875L15.1103 10.875L15.1103 6L43.1471 6C44.4412 6 45.5735 6.4875 46.5441 7.4625C47.5147 8.4375 48 9.575 48 10.875L48 53.125ZM40.3309 32L24.7206 47.6812L21.2426 44.1875L30.9485 34.4375L8 34.4375L8 29.5625L30.9485 29.5625L21.2426 19.8125L24.7206 16.3188L40.3309 32Z" fill="#AAB5FF"/>
<path d="M50 51.125C50 52.425 49.5147 53.5625 48.5441 54.5375C47.5735 55.5125 46.4412 56 45.1471 56L17.1103 56L17.1103 51.125L45.1471 51.125L45.1471 8.875L17.1103 8.875L17.1103 4L45.1471 4C46.4412 4 47.5735 4.4875 48.5441 5.4625C49.5147 6.4375 50 7.575 50 8.875L50 51.125ZM42.3309 30L26.7206 45.6812L23.2426 42.1875L32.9485 32.4375L10 32.4375L10 27.5625L32.9485 27.5625L23.2426 17.8125L26.7206 14.3188L42.3309 30Z" fill="#F5F6FA"/>
</svg>
