<svg width="48" height="60" viewBox="0 0 48 60" fill="none" xmlns="http://www.w3.org/2000/svg">
<g clip-path="url(#clip0_1061_28041)">
<path d="M36.3636 23.4141H11.6364C5.20978 23.4141 0 28.6556 0 35.1214V48.2921C0 54.7579 5.20978 59.9994 11.6364 59.9994H36.3636C42.7902 59.9994 48 54.7579 48 48.2921V35.1214C48 28.6556 42.7902 23.4141 36.3636 23.4141Z" fill="#F5F6FA"/>
<path d="M11.6349 26.3424C11.6349 25.1058 11.6371 20.4887 11.6328 16.0985C11.6286 11.7083 13.8189 2.92773 23.2727 2.92773C33.4553 2.92773 36.3629 11.7083 36.3629 16.0985" stroke="#F5F6FA" stroke-width="5.85366" stroke-linecap="round" stroke-linejoin="round"/>
<path fill-rule="evenodd" clip-rule="evenodd" d="M26.1829 43.4092C27.9029 42.5872 29.092 40.8234 29.092 38.7802C29.092 35.9514 26.8127 33.6582 24.0011 33.6582C21.1894 33.6582 18.9102 35.9514 18.9102 38.7802C18.9102 40.8234 20.0992 42.5872 21.8192 43.4092V50.4875C21.8192 51.6998 22.7961 52.6826 24.0011 52.6826C25.206 52.6826 26.1829 51.6998 26.1829 50.4875V43.4092Z" fill="#DCDDFF"/>
</g>
<defs>
<clipPath id="clip0_1061_28041">
<rect width="48" height="60" fill="white"/>
</clipPath>
</defs>
</svg>
