<svg width="125" height="23" viewBox="0 0 125 23" fill="none" xmlns="http://www.w3.org/2000/svg">
<path d="M3.76527 8.74658H4.47604C5.21883 8.74658 5.7887 8.57717 6.18575 8.23834C6.5828 7.89941 6.78128 7.41232 6.78128 6.77699C6.78128 6.14166 6.5828 5.65448 6.18575 5.31565C5.7887 4.97682 5.21883 4.8074 4.47604 4.8074H3.76527V8.74658ZM12.0449 17.5781H7.35762L3.76527 11.4363V17.5781H0V1.60938H5.8592C6.66603 1.60938 7.37034 1.74355 7.97233 2.0118C8.57422 2.26587 9.06733 2.61888 9.45145 3.07072C9.8485 3.52256 10.143 4.04488 10.3351 4.63789C10.5401 5.23089 10.6425 5.86632 10.6425 6.54398C10.6425 7.75824 10.3736 8.74658 9.83567 9.509C9.31065 10.2573 8.52938 10.7656 7.49206 11.0339L12.0449 17.5781Z" fill="white"/>
<path d="M15.1428 12.1145C15.1428 12.4675 15.2005 12.7992 15.3157 13.1098C15.431 13.4063 15.5847 13.6675 15.7768 13.8935C15.9816 14.1194 16.2186 14.2958 16.4876 14.4229C16.7693 14.55 17.0703 14.6136 17.3905 14.6136C17.6978 14.6136 17.986 14.55 18.2549 14.4229C18.5367 14.2958 18.7735 14.1194 18.9656 13.8935C19.1706 13.6675 19.3307 13.4063 19.4459 13.1098C19.574 12.8133 19.638 12.4956 19.638 12.1568C19.638 11.818 19.574 11.5003 19.4459 11.2038C19.3307 10.8931 19.1706 10.6249 18.9656 10.3989C18.7735 10.173 18.5367 9.99661 18.2549 9.86953C17.986 9.74244 17.6978 9.67885 17.3905 9.67885C17.0703 9.67885 16.7693 9.74244 16.4876 9.86953C16.2186 9.99661 15.9816 10.173 15.7768 10.3989C15.5847 10.6249 15.431 10.8861 15.3157 11.1826C15.2005 11.4649 15.1428 11.7756 15.1428 12.1145ZM19.5228 6.71383H23.0191V17.5786H19.5228V16.3713C18.78 17.4021 17.7747 17.9174 16.5068 17.9174C15.7895 17.9174 15.1301 17.7762 14.5281 17.4938C13.9262 17.1973 13.4011 16.7879 12.9529 16.2655C12.5046 15.7431 12.1524 15.1289 11.8963 14.4229C11.653 13.717 11.5312 12.9475 11.5312 12.1145C11.5312 11.3379 11.653 10.6037 11.8963 9.91186C12.1396 9.20594 12.479 8.59167 12.9144 8.06935C13.3498 7.54693 13.8685 7.13742 14.4705 6.84092C15.0724 6.53034 15.7383 6.375 16.4684 6.375C17.6978 6.375 18.7159 6.84801 19.5228 7.79402V6.71383Z" fill="white"/>
<path d="M32.0894 12.1777C32.0894 11.8389 32.0318 11.5212 31.9165 11.2247C31.8012 10.9141 31.6411 10.6458 31.4363 10.4199C31.2314 10.1941 30.9944 10.0176 30.7255 9.89048C30.4566 9.74932 30.162 9.67863 29.8418 9.67863C29.5345 9.67863 29.2463 9.74223 28.9773 9.86931C28.7085 9.9964 28.4715 10.1728 28.2666 10.3987C28.0745 10.6246 27.9144 10.8929 27.7863 11.2036C27.671 11.5001 27.6135 11.8177 27.6135 12.1566C27.6135 12.4954 27.671 12.8131 27.7863 13.1096C27.9016 13.4061 28.0616 13.6673 28.2666 13.8933C28.4715 14.105 28.7085 14.2815 28.9773 14.4227C29.2591 14.5498 29.5537 14.6133 29.861 14.6133C30.1684 14.6133 30.4566 14.5498 30.7255 14.4227C30.9944 14.2956 31.225 14.1192 31.4171 13.8933C31.622 13.6673 31.782 13.4061 31.8973 13.1096C32.0254 12.8131 32.0894 12.5025 32.0894 12.1777ZM27.7095 0V7.7938C28.5291 6.84779 29.5537 6.37479 30.7831 6.37479C31.5131 6.37479 32.1791 6.53013 32.781 6.8407C33.3957 7.13721 33.9144 7.54672 34.3371 8.06914C34.7725 8.57739 35.1119 9.18447 35.3552 9.89048C35.5985 10.5823 35.7201 11.3236 35.7201 12.1142C35.7201 12.919 35.5921 13.6744 35.336 14.3803C35.0926 15.0862 34.7469 15.7005 34.2986 16.2228C33.8503 16.7453 33.3188 17.1618 32.7041 17.4724C32.1022 17.7689 31.4491 17.9172 30.7447 17.9172C29.464 17.9172 28.4523 17.4019 27.7095 16.3711V17.5784H24.2324V0H27.7095Z" fill="white"/>
<path d="M44.4074 12.1777C44.4074 11.8389 44.3497 11.5212 44.2353 11.2247C44.12 10.9141 43.9599 10.6458 43.7551 10.4199C43.5492 10.1941 43.3126 10.0176 43.0441 9.89048C42.7746 9.74932 42.4803 9.67863 42.1601 9.67863C41.8528 9.67863 41.5645 9.74223 41.296 9.86931C41.0265 9.9964 40.7899 10.1728 40.585 10.3987C40.3931 10.6246 40.233 10.8929 40.1047 11.2036C39.9894 11.5001 39.9317 11.8177 39.9317 12.1566C39.9317 12.4954 39.9894 12.8131 40.1047 13.1096C40.2201 13.4061 40.3802 13.6673 40.585 13.8933C40.7899 14.105 41.0265 14.2815 41.296 14.4227C41.5774 14.5498 41.8717 14.6133 42.179 14.6133C42.4862 14.6133 42.7746 14.5498 43.0441 14.4227C43.3126 14.2956 43.5433 14.1192 43.7352 13.8933C43.94 13.6673 44.1001 13.4061 44.2155 13.1096C44.3437 12.8131 44.4074 12.5025 44.4074 12.1777ZM40.0282 0V7.7938C40.8475 6.84779 41.8717 6.37479 43.1018 6.37479C43.8316 6.37479 44.4979 6.53013 45.0994 6.8407C45.714 7.13721 46.233 7.54672 46.6556 8.06914C47.0912 8.57739 47.4302 9.18447 47.6739 9.89048C47.9165 10.5823 48.0388 11.3236 48.0388 12.1142C48.0388 12.919 47.9105 13.6744 47.654 14.3803C47.4113 15.0862 47.0653 15.7005 46.6169 16.2228C46.1684 16.7453 45.6374 17.1618 45.0229 17.4724C44.4203 17.7689 43.767 17.9172 43.063 17.9172C41.7822 17.9172 40.771 17.4019 40.0282 16.3711V17.5784H36.5508V0H40.0282Z" fill="white"/>
<path d="M51.9144 16.0951L47.1504 6.71289H51.1845L53.8156 12.2829L56.3711 6.71289H60.3665L52.4523 22.9993H48.5524L51.9144 16.0951Z" fill="white"/>
<path d="M68.5373 1.60938L71.0351 11.9234L74.1087 1.60938H77.1048L80.1784 11.9234L82.6762 1.60938H86.6139L82.2924 17.5781H78.4501L75.6073 8.32299L72.7634 17.5781H68.9211L64.5996 1.60938H68.5373Z" fill="white"/>
<path d="M89.2346 12.1145C89.2346 12.4675 89.2923 12.7992 89.4076 13.1098C89.522 13.4063 89.6761 13.6675 89.868 13.8935C90.0728 14.1194 90.3105 14.2958 90.579 14.4229C90.8604 14.55 91.1617 14.6136 91.4819 14.6136C91.7891 14.6136 92.0775 14.55 92.3459 14.4229C92.6283 14.2958 92.865 14.1194 93.0569 13.8935C93.2618 13.6675 93.4219 13.4063 93.5372 13.1098C93.6655 12.8133 93.7291 12.4956 93.7291 12.1568C93.7291 11.818 93.6655 11.5003 93.5372 11.2038C93.4219 10.8931 93.2618 10.6249 93.0569 10.3989C92.865 10.173 92.6283 9.99661 92.3459 9.86953C92.0775 9.74244 91.7891 9.67885 91.4819 9.67885C91.1617 9.67885 90.8604 9.74244 90.579 9.86953C90.3105 9.99661 90.0728 10.173 89.868 10.3989C89.6761 10.6249 89.522 10.8861 89.4076 11.1826C89.2923 11.4649 89.2346 11.7756 89.2346 12.1145ZM93.6138 6.71383H97.11V17.5786H93.6138V16.3713C92.871 17.4021 91.8657 17.9174 90.5979 17.9174C89.8809 17.9174 89.2217 17.7762 88.6191 17.4938C88.0175 17.1973 87.4925 16.7879 87.044 16.2655C86.5955 15.7431 86.2435 15.1289 85.988 14.4229C85.7443 13.717 85.623 12.9475 85.623 12.1145C85.623 11.3379 85.7443 10.6037 85.988 9.91186C86.2306 9.20594 86.5707 8.59167 87.0062 8.06935C87.4417 7.54693 87.9598 7.13742 88.5614 6.84092C89.164 6.53034 89.8302 6.375 90.5601 6.375C91.7891 6.375 92.8073 6.84801 93.6138 7.79402V6.71383Z" fill="white"/>
<path d="M101.8 0V17.5784H98.3223V0H101.8Z" fill="white"/>
<path d="M106.501 0V17.5784H103.023V0H106.501Z" fill="white"/>
<path d="M114.928 10.5674C114.813 10.0309 114.576 9.60032 114.217 9.27556C113.858 8.95081 113.423 8.78838 112.91 8.78838C112.372 8.78838 111.931 8.94372 111.585 9.2544C111.253 9.56498 111.041 10.0026 110.951 10.5674H114.928ZM110.855 12.7912C110.855 14.4431 111.56 15.2691 112.968 15.2691C113.724 15.2691 114.293 14.9303 114.678 14.2525H118.04C117.361 16.7375 115.664 17.9799 112.949 17.9799C112.117 17.9799 111.355 17.8459 110.663 17.5776C109.972 17.2952 109.376 16.8999 108.876 16.3916C108.39 15.8833 108.012 15.2762 107.744 14.5702C107.474 13.8643 107.34 13.0736 107.34 12.1982C107.34 11.2946 107.468 10.4827 107.724 9.76265C107.98 9.02848 108.345 8.40722 108.818 7.89888C109.293 7.39063 109.863 7.00238 110.529 6.73413C111.207 6.45171 111.97 6.31055 112.815 6.31055C113.647 6.31055 114.396 6.45171 115.062 6.73413C115.728 7.00238 116.292 7.39772 116.753 7.92014C117.214 8.44247 117.566 9.08489 117.81 9.8474C118.052 10.5956 118.174 11.4428 118.174 12.3888V12.7912H110.855Z" fill="white"/>
<path d="M123.02 9.91267V17.5794H119.543V9.91267H118.391V6.71464H119.543V3.45312H123.02V6.71464H124.999V9.91267H123.02Z" fill="white"/>
</svg>
