<svg width="24" height="24" viewBox="0 0 24 24" fill="none" xmlns="http://www.w3.org/2000/svg">
<path d="M18.9347 12.918L18.8995 13.1993L19.1228 13.3739L21.2257 15.0183C21.2256 15.0206 21.225 15.0239 21.2231 15.0282L19.2279 18.4798L19.2278 18.4797L19.2267 18.4818L16.7472 17.486L16.486 17.3811L16.2608 17.55C15.7667 17.9206 15.2435 18.2369 14.6812 18.4673L14.4165 18.5758L14.3759 18.859L13.9972 21.5H10.0045L9.62575 18.859L9.58514 18.5758L9.32043 18.4673C8.75463 18.2355 8.23305 17.9286 7.74567 17.5537L7.51939 17.3796L7.25448 17.486L4.77894 18.4802C4.77841 18.4803 4.77772 18.4803 4.77688 18.4803C4.77585 18.4803 4.77485 18.4803 4.77392 18.4802L4.7737 18.4798L2.77856 15.0282C2.77659 15.0239 2.77601 15.0206 2.77592 15.0183L4.87882 13.3739L5.10211 13.1993L5.06696 12.918C5.02824 12.6082 5.00082 12.301 5.00082 12C5.00082 11.699 5.02824 11.3918 5.06696 11.082L5.10211 10.8007L4.87882 10.6261L2.77381 8.98003L4.7737 5.52022L4.77383 5.5203L4.77498 5.5182L7.25448 6.51398L7.51565 6.61887L7.74082 6.45C8.23497 6.07939 8.75815 5.7631 9.32043 5.53265L9.58514 5.42416L9.62575 5.14097L10.0045 2.5H13.9972L14.3759 5.14097L14.4165 5.42416L14.6812 5.53265C15.247 5.76454 15.7686 6.0714 16.256 6.44631L16.4822 6.62037L16.7472 6.51398L19.2227 5.51979C19.2232 5.51973 19.2239 5.51969 19.2248 5.51968C19.2258 5.51968 19.2268 5.51974 19.2277 5.51984L19.2279 5.52022L21.2231 8.97181C21.225 8.97608 21.2256 8.97944 21.2257 8.98168L19.1228 10.6261L18.8995 10.8007L18.9347 11.082C18.9735 11.3923 19.0008 11.6893 19.0008 12C19.0008 12.3107 18.9735 12.6077 18.9347 12.918ZM8.00082 12C8.00082 14.2061 9.79467 16 12.0008 16C14.207 16 16.0008 14.2061 16.0008 12C16.0008 9.79386 14.207 8 12.0008 8C9.79467 8 8.00082 9.79386 8.00082 12Z" stroke="url(#paint0_linear_1485_3435)"/>
<defs>
<linearGradient id="paint0_linear_1485_3435" x1="4.13909" y1="3.45299" x2="22.5763" y2="13.6535" gradientUnits="userSpaceOnUse">
<stop stop-color="#88ABFF"/>
<stop offset="0.0001" stop-color="#88ABFF"/>
<stop offset="1" stop-color="#7983FF"/>
</linearGradient>
</defs>
</svg>
