<svg width="16" height="16" viewBox="0 0 16 16" fill="none" xmlns="http://www.w3.org/2000/svg">
<g clip-path="url(#clip0_1064_28662)">
<path d="M9.9208 10.2161L8.4728 14.2081C8.43681 14.3042 8.37233 14.3871 8.28798 14.4456C8.20363 14.5041 8.10344 14.5354 8.0008 14.5354C7.89816 14.5354 7.79797 14.5041 7.71362 14.4456C7.62927 14.3871 7.56479 14.3042 7.5288 14.2081L6.0888 10.2161C6.06269 10.1476 6.02197 10.0857 5.96947 10.0346C5.91696 9.98345 5.85394 9.94439 5.7848 9.92012L1.7928 8.47212C1.69298 8.43988 1.60594 8.37683 1.54421 8.29202C1.48248 8.20721 1.44922 8.10502 1.44922 8.00012C1.44922 7.89522 1.48248 7.79302 1.54421 7.70821C1.60594 7.62341 1.69298 7.56035 1.7928 7.52812L5.7848 6.08812C5.85327 6.06201 5.91523 6.02129 5.96635 5.96878C6.01747 5.91628 6.05653 5.85326 6.0808 5.78412L7.5288 1.79212C7.56479 1.69599 7.62927 1.61315 7.71362 1.55467C7.79797 1.49618 7.89816 1.46484 8.0008 1.46484C8.10344 1.46484 8.20363 1.49618 8.28798 1.55467C8.37233 1.61315 8.43681 1.69599 8.4728 1.79212L9.9128 5.78412C9.9389 5.85259 9.97963 5.91455 10.0321 5.96567C10.0846 6.01679 10.1477 6.05585 10.2168 6.08012L14.2088 7.52812C14.3049 7.56411 14.3878 7.62859 14.4462 7.71294C14.5047 7.79728 14.5361 7.89748 14.5361 8.00012C14.5361 8.10276 14.5047 8.20295 14.4462 8.2873C14.3878 8.37165 14.3049 8.43613 14.2088 8.47212L10.2168 9.91212C10.1483 9.93822 10.0864 9.97895 10.0352 10.0315C9.98413 10.084 9.94507 10.147 9.9208 10.2161Z" fill="url(#paint0_linear_1064_28662)"/>
</g>
<defs>
<linearGradient id="paint0_linear_1064_28662" x1="2.70556" y1="2.41441" x2="14.9376" y2="9.38041" gradientUnits="userSpaceOnUse">
<stop stop-color="#88ABFF"/>
<stop offset="0.0001" stop-color="#88ABFF"/>
<stop offset="1" stop-color="#7983FF"/>
</linearGradient>
<clipPath id="clip0_1064_28662">
<rect width="16" height="16" fill="white"/>
</clipPath>
</defs>
</svg>
