<svg width="16" height="16" viewBox="0 0 16 16" fill="none" xmlns="http://www.w3.org/2000/svg">
<path d="M11 4.5H14.5V8" stroke="white" stroke-width="1.5" stroke-linecap="round" stroke-linejoin="round"/>
<path d="M1.5 11.5L5.29281 7.70719C5.38567 7.6143 5.49592 7.54062 5.61726 7.49036C5.7386 7.44009 5.86866 7.41421 6 7.41421C6.13134 7.41421 6.2614 7.44009 6.38274 7.49036C6.50408 7.54062 6.61433 7.6143 6.70719 7.70719L8.29281 9.29281C8.38567 9.3857 8.49592 9.45938 8.61726 9.50964C8.7386 9.55991 8.86866 9.58579 9 9.58579C9.13134 9.58579 9.2614 9.55991 9.38274 9.50964C9.50408 9.45938 9.61433 9.3857 9.70719 9.29281L14 5" stroke="white" stroke-width="1.5" stroke-linecap="round" stroke-linejoin="round"/>
</svg>
