<svg width="90" height="13" viewBox="0 0 90 13" fill="none" xmlns="http://www.w3.org/2000/svg">
<path d="M5.60314 1C7.46603 2.5587 9.60227 2.46258 10.2126 2.46258C10.0791 11.3273 9.06185 9.56947 5.60314 12.0552C2.14443 9.56947 1.13353 11.3273 1 2.46258C1.60401 2.46258 3.74026 2.5587 5.60314 1Z" stroke="#DEE1FF" stroke-width="0.921265" stroke-miterlimit="10" stroke-linecap="round" stroke-linejoin="round"/>
<g clip-path="url(#clip0_1078_27104)">
<path d="M27.4031 1.45117L22.7168 4.91965L23.5881 2.87533L27.4031 1.45117Z" fill="#D6D9FF"/>
<path d="M16.5957 1.45117L21.2398 4.95229L20.4102 2.87533L16.5957 1.45117Z" fill="#DCDFFF"/>
<path d="M25.7172 9.49414L24.4707 11.3997L27.1404 12.1351L27.9052 9.5359L25.7172 9.49414Z" fill="#DCDFFF"/>
<path d="M16.0996 9.5359L16.8596 12.1351L19.525 11.3997L18.2827 9.49414L16.0996 9.5359Z" fill="#DCDFFF"/>
<path d="M19.38 6.27456L18.6387 7.39392L21.2805 7.5144L21.1922 4.66992L19.38 6.27456Z" fill="#DCDFFF"/>
<path d="M24.6173 6.27547L22.7773 4.63867L22.7168 7.51531L25.3586 7.39483L24.6173 6.27547Z" fill="#DCDFFF"/>
<path d="M19.5254 11.3998L21.1241 10.6275L19.7475 9.55469L19.5254 11.3998Z" fill="#DCDFFF"/>
<path d="M22.875 10.6275L24.4694 11.3998L24.2516 9.55469L22.875 10.6275Z" fill="#DCDFFF"/>
<path d="M24.4694 11.3993L22.875 10.627L23.0045 11.6628L22.9906 12.1025L24.4694 11.3993Z" fill="#8590FF"/>
<path d="M19.5254 11.3993L21.0085 12.1025L20.9994 11.6628L21.1241 10.627L19.5254 11.3993Z" fill="#8590FF"/>
<path d="M21.0347 8.86966L19.709 8.48086L20.6451 8.05078L21.0347 8.86966Z" fill="#5362A6"/>
<path d="M22.9629 8.86966L23.3525 8.05078L24.2934 8.48086L22.9629 8.86966Z" fill="#5362A6"/>
<path d="M19.5254 11.3997L19.7572 9.49414L18.2832 9.5359L19.5254 11.3997Z" fill="#9AA3FF"/>
<path d="M24.2422 9.49414L24.4696 11.3997L25.7162 9.5359L24.2422 9.49414Z" fill="#9AA3FF"/>
<path d="M25.3586 7.39453L22.7168 7.51501L22.9625 8.87005L23.3516 8.05117L24.293 8.48125L25.3586 7.39453Z" fill="#9AA3FF"/>
<path d="M19.7091 8.48125L20.6452 8.05117L21.0348 8.87005L21.2805 7.51501L19.9596 7.45477L18.6387 7.39453L19.7091 8.48125Z" fill="#9AA3FF"/>
<path d="M18.6387 7.39453L19.7461 9.55453L19.7091 8.48125L18.6387 7.39453Z" fill="#9BA1DA"/>
<path d="M24.2937 8.48125L24.252 9.55453L25.3594 7.39453L24.2937 8.48125Z" fill="#9BA1DA"/>
<path d="M21.2808 7.51562L21.0352 8.87067L21.3456 10.4705L21.4152 8.36187L21.2808 7.51562Z" fill="#9BA1DA"/>
<path d="M22.7174 7.51562L22.5879 8.35707L22.6527 10.4705L22.9631 8.87067L22.7174 7.51562Z" fill="#9BA1DA"/>
<path d="M22.9628 8.86927L22.6523 10.4691L22.875 10.6265L24.2515 9.55375L24.2933 8.48047L22.9628 8.86927Z" fill="#BCC2FF"/>
<path d="M19.709 8.48047L19.7459 9.55375L21.1225 10.6265L21.3451 10.4691L21.0347 8.86927L19.709 8.48047Z" fill="#BCC2FF"/>
<path d="M22.992 12.1016L23.0059 11.662L22.8855 11.5602H21.115L20.9994 11.662L21.0085 12.1016L19.5254 11.3984L20.0445 11.8242L21.0963 12.55H22.8994L23.9559 11.8242L24.4708 11.3984L22.992 12.1016Z" fill="#BCC2FF"/>
<path d="M22.8755 10.6262L22.6529 10.4688H21.3459L21.1233 10.6262L20.998 11.662L21.1142 11.5603H22.8847L23.0051 11.662L22.8755 10.6262Z" fill="#5362A6"/>
<path d="M27.6025 5.14621L27.9965 3.23149L27.4029 1.45117L22.875 4.80445L24.6177 6.27469L27.0786 6.99181L27.6213 6.35821L27.3847 6.18685L27.7599 5.84461L27.4725 5.62285L27.8482 5.33581L27.6025 5.14621Z" fill="#5362A6"/>
<path d="M16.002 3.23149L16.4007 5.14621L16.1459 5.33581L16.5259 5.62285L16.2385 5.84461L16.6137 6.18685L16.3772 6.35821L16.9198 6.99181L19.3808 6.27469L21.1234 4.80445L16.5955 1.45117L16.002 3.23149Z" fill="#5362A6"/>
<path d="M27.079 6.99251L24.618 6.27539L25.3594 7.39475L24.252 9.55475L25.7163 9.53603H27.9043L27.079 6.99251Z" fill="#BCC2FF"/>
<path d="M19.381 6.27539L16.9201 6.99251L16.0996 9.53603H18.2827L19.7471 9.55475L18.6397 7.39475L19.381 6.27539Z" fill="#BCC2FF"/>
<path d="M22.718 7.5142L22.8759 4.80364L23.5894 2.875H20.4102L21.1236 4.80364L21.2815 7.5142L21.3415 8.36476L21.3463 10.4691H22.6533L22.6581 8.36476L22.718 7.5142Z" fill="#BCC2FF"/>
</g>
<path d="M31.9922 6.9729C31.9922 3.65773 34.7046 0.945312 38.0198 0.945312C41.3349 0.945312 44.0474 3.65773 44.0474 6.9729C44.0474 10.2881 41.3349 13.0005 38.0198 13.0005C34.7046 13.0005 31.9922 10.2881 31.9922 6.9729Z" fill="#DEE1FF"/>
<path d="M37.3833 3.94531C35.0059 3.94531 34 4.84525 34 6.11335V8.07686C34 9.30405 35.0059 10.204 37.3833 10.204H39.7151C41.9097 10.204 42.0012 9.95855 42.0012 9.5904C42.0012 9.14043 41.8183 8.9768 41.3153 8.9768H37.4291C36.2403 8.9768 35.646 8.44502 35.646 7.91323V7.7087H41.3611C41.7726 7.7087 42.0469 7.46326 42.0469 7.09511C42.0469 6.72695 41.6811 6.48151 41.3153 6.48151H35.6002V6.31788C35.6002 5.7861 36.1946 5.25432 37.3833 5.25432H41.2696C41.7726 5.25432 41.9554 5.09069 41.9554 4.64072C41.9554 4.23166 42.0062 3.94531 39.8116 3.94531H37.3833Z" fill="#AAB5FF"/>
<g clip-path="url(#clip1_1078_27104)">
<path d="M59.1605 4.13517L54.3789 1V2.75289L57.4464 4.74617L57.0855 5.88807H54.3789V7.34044H57.0855L57.4464 8.48235L54.3789 10.4756V12.2285L59.1605 9.10336L58.3787 6.61927L59.1605 4.13517Z" fill="url(#paint0_linear_1078_27104)"/>
<path d="M50.2179 7.34044H52.9144V5.88807H50.2079L49.857 4.74617L52.9144 2.75289V1L48.1328 4.13517L48.9147 6.61927L48.1328 9.10336L52.9244 12.2285V10.4756L49.857 8.48235L50.2179 7.34044Z" fill="url(#paint1_linear_1078_27104)"/>
<mask id="mask0_1078_27104" style="mask-type:alpha" maskUnits="userSpaceOnUse" x="48" y="1" width="12" height="12">
<path d="M59.1586 4.13517L54.377 1V2.75289L57.4444 4.74617L57.0835 5.88807H54.377V7.34044H57.0835L57.4444 8.48235L54.377 10.4756V12.2285L59.1586 9.10336L58.3767 6.61927L59.1586 4.13517Z" fill="url(#paint2_linear_1078_27104)"/>
<path d="M50.2179 7.34044H52.9144V5.88807H50.2079L49.857 4.74617L52.9144 2.75289V1L48.1328 4.13517L48.9147 6.61927L48.1328 9.10336L52.9245 12.2285V10.4756L49.857 8.48235L50.2179 7.34044Z" fill="url(#paint3_linear_1078_27104)"/>
</mask>
<g mask="url(#mask0_1078_27104)">
<path d="M59.0865 1H48.1387V12.2285H59.0865V1Z" fill="url(#paint4_linear_1078_27104)"/>
</g>
</g>
<g clip-path="url(#clip2_1078_27104)">
<path d="M70.041 12.4985C70.167 12.4985 70.2692 12.5995 70.2692 12.7242C70.2692 12.8488 70.167 12.9498 70.041 12.9498C69.915 12.9498 69.8128 12.8488 69.8128 12.7242C69.8128 12.5995 69.915 12.4985 70.041 12.4985ZM69.7931 1.71874C69.9046 1.72795 69.9947 1.81244 70.0098 1.92197L70.2811 3.89375C70.3723 4.54518 71.158 4.82745 71.643 4.38477L74.362 1.90999C74.4275 1.85029 74.5297 1.85443 74.5901 1.91923C74.6455 1.97868 74.6472 2.0697 74.594 2.1311L72.223 4.86609C71.7865 5.3687 72.1086 6.15352 72.7739 6.20956L74.866 6.41123C74.9702 6.42126 75.0464 6.51285 75.0362 6.61581C75.0278 6.7007 74.9624 6.76929 74.8771 6.78258L72.6789 7.12583C72.0406 7.21283 71.7516 7.96864 72.1667 8.45965L72.9395 9.37072C73.0018 9.44411 72.9921 9.55348 72.9178 9.61499C72.8548 9.66712 72.7637 9.66914 72.6984 9.61986L71.7458 8.90039C71.2317 8.51377 70.4907 8.84238 70.4363 9.48222L70.2264 11.9776C70.2177 12.0807 70.1261 12.1573 70.0218 12.1488C69.9332 12.1415 69.8617 12.0744 69.8497 11.9875L69.5168 9.57697C69.4276 8.92552 68.6419 8.64328 68.155 9.08596L65.2625 11.7197C65.2026 11.7742 65.1093 11.7705 65.0542 11.7113C65.0035 11.657 65.002 11.5739 65.0506 11.5179L67.5749 8.60464C68.0114 8.10203 67.6913 7.31718 67.0259 7.26117L64.9334 7.05945C64.8292 7.04942 64.753 6.95781 64.7632 6.85487C64.7716 6.76998 64.837 6.70142 64.9222 6.68807L67.119 6.34489C67.7573 6.25789 68.0483 5.50209 67.6331 5.01107L67.1071 4.39089C67.0299 4.29988 67.042 4.16426 67.1341 4.08798C67.2122 4.02333 67.3252 4.02086 67.4061 4.08201L68.0521 4.57034C68.5662 4.95695 69.3073 4.62834 69.3616 3.9885L69.5354 1.93411C69.5464 1.80432 69.6617 1.70789 69.7931 1.71874ZM64.2282 6.62426C64.3542 6.62426 64.4563 6.7253 64.4563 6.84993C64.4563 6.97456 64.3542 7.0756 64.2282 7.0756C64.1022 7.0756 64 6.97456 64 6.84993C64 6.7253 64.1022 6.62426 64.2282 6.62426ZM75.6713 6.39513C75.7973 6.39513 75.8995 6.49617 75.8995 6.6208C75.8995 6.74543 75.7973 6.84645 75.6713 6.84645C75.5453 6.84645 75.4431 6.74543 75.4431 6.6208C75.4431 6.49617 75.5453 6.39513 75.6713 6.39513ZM69.7602 1C69.8862 1 69.9883 1.10103 69.9883 1.22566C69.9883 1.3503 69.8862 1.45133 69.7602 1.45133C69.6342 1.45133 69.532 1.3503 69.532 1.22566C69.532 1.10103 69.6342 1 69.7602 1Z" fill="url(#paint5_linear_1078_27104)"/>
<path d="M69.8974 8.86683C71.0877 8.86683 72.0527 7.91247 72.0527 6.73517C72.0527 5.5579 71.0877 4.60352 69.8974 4.60352C68.7071 4.60352 67.7422 5.5579 67.7422 6.73517C67.7422 7.91247 68.7071 8.86683 69.8974 8.86683Z" fill="url(#paint6_radial_1078_27104)"/>
</g>
<circle cx="81.2353" cy="7.23529" r="1.23529" fill="#AAB5FF"/>
<circle cx="84.5283" cy="7.23529" r="1.23529" fill="#AAB5FF"/>
<circle cx="87.8232" cy="7.23529" r="1.23529" fill="#AAB5FF"/>
<defs>
<linearGradient id="paint0_linear_1078_27104" x1="57.6137" y1="13.0005" x2="54.4108" y2="-0.233112" gradientUnits="userSpaceOnUse">
<stop stop-color="#AAB5FF"/>
<stop offset="1" stop-color="#DEE1FF"/>
</linearGradient>
<linearGradient id="paint1_linear_1078_27104" x1="57.6128" y1="13.0005" x2="54.4098" y2="-0.233112" gradientUnits="userSpaceOnUse">
<stop stop-color="#AAB5FF"/>
<stop offset="1" stop-color="#DEE1FF"/>
</linearGradient>
<linearGradient id="paint2_linear_1078_27104" x1="57.6117" y1="13.0005" x2="54.4088" y2="-0.233112" gradientUnits="userSpaceOnUse">
<stop stop-color="#0B46F9"/>
<stop offset="1" stop-color="#BBFBE0"/>
</linearGradient>
<linearGradient id="paint3_linear_1078_27104" x1="57.6128" y1="13.0005" x2="54.4098" y2="-0.233112" gradientUnits="userSpaceOnUse">
<stop stop-color="#0B46F9"/>
<stop offset="1" stop-color="#BBFBE0"/>
</linearGradient>
<linearGradient id="paint4_linear_1078_27104" x1="48.8405" y1="3.52642" x2="54.3845" y2="7.66693" gradientUnits="userSpaceOnUse">
<stop offset="0.119792" stop-color="#DEE1FF"/>
<stop offset="1" stop-color="#AAB5FF"/>
</linearGradient>
<linearGradient id="paint5_linear_1078_27104" x1="65.5548" y1="2.9008" x2="72.3786" y2="9.07823" gradientUnits="userSpaceOnUse">
<stop stop-color="#DEE1FF"/>
<stop offset="1" stop-color="#AAB5FF"/>
</linearGradient>
<radialGradient id="paint6_radial_1078_27104" cx="0" cy="0" r="1" gradientUnits="userSpaceOnUse" gradientTransform="translate(69.4052 5.94821) rotate(67.5196) scale(3.13344 3.1639)">
<stop stop-color="#AAB5FF"/>
<stop offset="1" stop-color="#C9CFFF"/>
</radialGradient>
<clipPath id="clip0_1078_27104">
<rect width="12" height="12" fill="white" transform="translate(16 1)"/>
</clipPath>
<clipPath id="clip1_1078_27104">
<rect width="11.2285" height="11.2285" fill="white" transform="translate(48 1)"/>
</clipPath>
<clipPath id="clip2_1078_27104">
<rect width="12" height="12" fill="white" transform="translate(64 1)"/>
</clipPath>
</defs>
</svg>
