<svg width="24" height="24" viewBox="0 0 24 24" fill="none" xmlns="http://www.w3.org/2000/svg">
<path fill-rule="evenodd" clip-rule="evenodd" d="M14.4345 4.06445H4.56445C3.90141 4.06445 3.26553 4.32785 2.79669 4.79669C2.32785 5.26553 2.06445 5.90141 2.06445 6.56445V17.4345C2.06445 18.0975 2.32785 18.7334 2.79669 19.2022C3.26553 19.6711 3.90141 19.9345 4.56445 19.9345H19.4345C20.0975 19.9345 20.7334 19.6711 21.2022 19.2022C21.6711 18.7334 21.9345 18.0975 21.9345 17.4345V8.56445H20.9345V9.99445H17.5145C16.7188 9.99445 15.9557 10.3105 15.3931 10.8731C14.8305 11.4357 14.5145 12.1988 14.5145 12.9945C14.5145 13.7901 14.8305 14.5532 15.3931 15.1158C15.9557 15.6784 16.7188 15.9945 17.5145 15.9945H20.9345V17.4345C20.9345 17.8323 20.7764 18.2138 20.4951 18.4951C20.2138 18.7764 19.8323 18.9345 19.4345 18.9345H4.56445C4.16663 18.9345 3.7851 18.7764 3.50379 18.4951C3.22249 18.2138 3.06445 17.8323 3.06445 17.4345V6.56445C3.06445 6.16663 3.22249 5.7851 3.50379 5.50379C3.7851 5.22249 4.16663 5.06445 4.56445 5.06445H14.4345V4.06445ZM17.5145 14.9945H20.9345V10.9945H17.5145C16.984 10.9945 16.4753 11.2052 16.1002 11.5802C15.7252 11.9553 15.5145 12.464 15.5145 12.9945C15.5145 13.5249 15.7252 14.0336 16.1002 14.4087C16.4753 14.7837 16.984 14.9945 17.5145 14.9945Z" fill="url(#paint0_linear_1485_3440)"/>
<path fill-rule="evenodd" clip-rule="evenodd" d="M16.1193 4.53594L18.7119 2.11158C18.871 1.96281 19.129 1.96281 19.2881 2.11158L21.8807 4.53594C22.0398 4.68471 22.0398 4.92592 21.8807 5.07469C21.7216 5.22346 21.4636 5.22346 21.3045 5.07469L19.4074 3.30065L19.4074 8L18.5926 8L18.5926 3.30065L16.6955 5.07469C16.5364 5.22346 16.2784 5.22346 16.1193 5.07469C15.9602 4.92592 15.9602 4.68472 16.1193 4.53594Z" fill="url(#paint1_linear_1485_3440)"/>
<defs>
<linearGradient id="paint0_linear_1485_3440" x1="3.97197" y1="5.2174" x2="20.2912" y2="16.8389" gradientUnits="userSpaceOnUse">
<stop stop-color="#88ABFF"/>
<stop offset="0.0001" stop-color="#88ABFF"/>
<stop offset="1" stop-color="#7983FF"/>
</linearGradient>
<linearGradient id="paint1_linear_1485_3440" x1="16.4359" y1="7.424" x2="19.6276" y2="1.81249" gradientUnits="userSpaceOnUse">
<stop stop-color="#88ABFF"/>
<stop offset="0.0001" stop-color="#88ABFF"/>
<stop offset="1" stop-color="#7983FF"/>
</linearGradient>
</defs>
</svg>
